<svg width="106" height="34" viewBox="0 0 106 34" fill="none" xmlns="http://www.w3.org/2000/svg">
<path d="M48.1546 19.4287V27.6785H46.4892V20.9299H42.0727V27.6785H40.4072V19.4287H48.1546Z" fill="#002F6B"/>
<path d="M50.1168 26.9989C49.6575 26.5444 49.4302 25.9476 49.4302 25.1993V21.8985C49.4302 21.1502 49.6575 20.5534 50.1168 20.1034C50.576 19.6535 51.1791 19.4286 51.926 19.4286H55.2616C56.0178 19.4286 56.6255 19.6535 57.0801 20.108C57.5394 20.5625 57.7667 21.1593 57.7667 21.8985V25.1993C57.7667 25.9384 57.5394 26.5353 57.0801 26.9943C56.6209 27.4534 56.0131 27.683 55.2616 27.683H51.926C51.1791 27.6784 50.576 27.4488 50.1168 26.9989ZM55.8647 25.966C56.0224 25.8145 56.1013 25.6171 56.1013 25.3738V21.7332C56.1013 21.4899 56.0224 21.2925 55.8647 21.141C55.7069 20.9895 55.5075 20.916 55.2616 20.916H51.926C51.6802 20.916 51.4807 20.9941 51.3276 21.141C51.1745 21.2925 51.1003 21.4899 51.1003 21.7332V25.3738C51.1003 25.6171 51.1745 25.8145 51.3276 25.966C51.4807 26.1175 51.6802 26.1909 51.926 26.1909H55.2616C55.5028 26.1909 55.7069 26.1175 55.8647 25.966Z" fill="#002F6B"/>
<path d="M68.1631 29.3679H66.6693V27.6784H60.193V29.3679H58.676L58.625 26.4343H59.3533C59.7152 26.09 60.0028 25.5896 60.2162 24.9285C60.4343 24.272 60.5688 23.5237 60.6338 22.6927L60.8704 19.4608H67.0915V26.4297H68.242L68.1631 29.3679ZM61.1301 26.4343H65.5234V20.7187H62.3642L62.2157 22.4953C62.109 24.1848 61.7472 25.4978 61.1301 26.4343Z" fill="#002F6B"/>
<path d="M69.1421 27.6784V19.4286H74.5653C75.3214 19.4286 75.9292 19.6535 76.3838 20.108C76.8431 20.5625 77.0704 21.1593 77.0704 21.8985C77.0704 22.3667 76.9683 22.7845 76.7596 23.1472C76.5508 23.5099 76.2586 23.7899 75.8735 23.9919C75.4931 24.1939 75.0524 24.2949 74.5606 24.2949H70.8076V27.683H69.1421V27.6784ZM74.5653 22.8029C74.8111 22.8029 75.0106 22.7294 75.1684 22.5779C75.3261 22.4264 75.4049 22.229 75.4049 21.9857V21.7332C75.4049 21.4899 75.3261 21.2925 75.1684 21.141C75.0106 20.9895 74.8111 20.916 74.5653 20.916H70.8122V22.8075H74.5653V22.8029Z" fill="#002F6B"/>
<path d="M80.8518 19.4286C80.0956 19.4286 79.4879 19.6535 79.0333 20.108C78.574 20.5625 78.3467 21.1593 78.3467 21.8985C78.3467 22.555 78.5462 23.0967 78.9451 23.5282C79.3441 23.9598 79.873 24.2123 80.5364 24.2766L78.3467 27.6784H80.2302L82.3549 24.2903H84.6095V27.6784H86.275V19.4286H80.8518ZM80.2487 22.5779C80.091 22.4264 80.0121 22.229 80.0121 21.9857V21.7332C80.0121 21.4899 80.091 21.2925 80.2487 21.141C80.4065 20.9895 80.6059 20.916 80.8518 20.916H84.6049V22.8075H80.8518C80.6059 22.8029 80.4065 22.7248 80.2487 22.5779Z" fill="#002F6B"/>
<path d="M96.6709 29.3679H95.1771V27.6784H88.7008V29.3679H87.1838L87.1328 26.4343H87.8612C88.223 26.09 88.5106 25.5896 88.724 24.9285C88.9421 24.272 89.0766 23.5237 89.1416 22.6927L89.3782 19.4608H95.5993V26.4297H96.7498L96.6709 29.3679ZM89.638 26.4343H94.0312V20.7187H90.872L90.7235 22.4953C90.6168 24.1848 90.2503 25.4978 89.638 26.4343Z" fill="#002F6B"/>
<path d="M105.314 20.108C105.773 20.5625 106 21.1593 106 21.8985V27.683H104.321V24.2949H99.3198V27.683H97.6543V21.8985C97.6543 21.1593 97.8816 20.5625 98.3409 20.108C98.8002 19.6535 99.4079 19.4286 100.159 19.4286H103.495C104.247 19.4286 104.854 19.6535 105.314 20.108ZM104.321 22.8029V21.7562C104.321 21.5037 104.242 21.3017 104.093 21.1456C103.94 20.9895 103.741 20.9114 103.495 20.9114H100.159C99.9136 20.9114 99.7141 20.9895 99.5564 21.1456C99.3986 21.3017 99.3198 21.5037 99.3198 21.7562V22.8029H104.321Z" fill="#002F6B"/>
<path d="M51.2768 11.9775V6.28486H49.6113V14.5347H51.1005L55.6932 8.84197V14.5347H57.3587V6.28486H55.8556L51.2768 11.9775ZM47.1386 9.97592C46.7582 9.77392 46.3175 9.67292 45.8258 9.67292H42.0727V7.67589H47.8392V6.2619H41.6227V6.28027H40.4072V14.5301H45.8304C46.5866 14.5301 47.1943 14.3051 47.6489 13.8506C48.1082 13.3961 48.3355 12.7993 48.3355 12.0602C48.3355 11.5919 48.2335 11.1741 48.0247 10.8115C47.816 10.458 47.519 10.1779 47.1386 9.97592ZM46.6654 12.23C46.6654 12.4734 46.5866 12.6708 46.4288 12.8223C46.2711 12.9738 46.0716 13.0472 45.8258 13.0472H42.0727V11.1558H45.8258C46.0716 11.1558 46.2711 11.2292 46.4288 11.3807C46.5866 11.5322 46.6654 11.7296 46.6654 11.9729V12.23ZM78.3833 6.28486H76.3467L74.1153 9.65915H73.4565V6.28486H71.9813H71.8143H71.7865V9.65915H71.1555L68.9241 6.28486H66.8875L69.6942 10.3937L66.7112 14.5392H68.7756L71.1509 11.1512H71.7957V14.5392H71.8236H71.9906H73.4658V11.1512H74.1385L76.5137 14.5392H78.5782L75.5952 10.3937L78.3833 6.28486ZM67.1473 8.75475C67.1473 8.01561 66.92 7.4188 66.4607 6.96431C66.0014 6.50981 65.3937 6.28486 64.6422 6.28486H58.6345V14.5347H60.2999V11.1466H64.6422C65.1339 11.1466 65.57 11.0456 65.955 10.8436C66.3355 10.6416 66.6324 10.3616 66.8411 9.99887C67.0452 9.64078 67.1473 9.22301 67.1473 8.75475ZM65.4818 8.84197C65.4818 9.08529 65.403 9.2827 65.2453 9.43419C65.0875 9.58569 64.888 9.65915 64.6422 9.65915H60.2999V7.76771H64.6422C64.888 7.76771 65.0875 7.84575 65.2453 7.99266C65.403 8.14416 65.4818 8.34157 65.4818 8.58488V8.84197ZM86.8962 6.96431C86.4369 6.50981 85.8292 6.28486 85.0776 6.28486H81.7421C80.9859 6.28486 80.3782 6.50981 79.9235 6.96431C79.4643 7.4188 79.2369 8.01561 79.2369 8.75475V14.5392H80.9024V11.1512H85.9034V14.5392H87.5828V8.75475C87.5828 8.01561 87.3508 7.4188 86.8962 6.96431ZM85.9034 9.65915H80.9024V8.61243C80.9024 8.35993 80.9813 8.15793 81.139 8.00184C81.2967 7.84575 81.4962 7.76771 81.7421 7.76771H85.0776C85.3235 7.76771 85.523 7.84575 85.6761 8.00184C85.8292 8.15793 85.9034 8.35993 85.9034 8.61243V9.65915Z" fill="#002F6B"/>
<path fill-rule="evenodd" clip-rule="evenodd" d="M17.1788 0C26.6658 0 34.3576 7.61167 34.3576 17C34.3576 26.3883 26.6658 34 17.1788 34C7.69171 34 0 26.3883 0 17C0 7.61167 7.69171 0 17.1788 0ZM17.1788 2.97029C9.34789 2.97029 3.00153 9.25061 3.00153 17C3.00153 24.7494 9.34789 31.0297 17.1788 31.0297C25.0097 31.0297 31.356 24.7494 31.356 17C31.356 9.25061 25.0097 2.97029 17.1788 2.97029Z" fill="#002F6B"/>
<path fill-rule="evenodd" clip-rule="evenodd" d="M16.6918 7.24885V3.98474L8.09082 8.62152V26.4066C8.67535 26.9575 9.31556 27.4533 9.99287 27.894V27.8986C10.0346 27.9261 10.081 27.9537 10.1274 27.9812C10.2434 28.0547 10.3547 28.1235 10.4707 28.1924C10.6099 28.275 10.7491 28.3485 10.8882 28.4265C10.9717 28.4725 11.0506 28.5184 11.1341 28.5643V28.5597C11.7186 28.8627 13.0454 29.3585 13.0825 29.3677C13.3006 29.4365 13.5233 29.5054 13.7459 29.5651C13.8526 29.5926 13.9547 29.6202 14.0614 29.6431C14.2331 29.6844 14.4047 29.7212 14.581 29.7579C14.6877 29.7808 14.7898 29.7992 14.8965 29.8176C14.9289 29.8222 14.9614 29.8313 14.9892 29.8359V29.8314C15.5459 29.9232 16.1119 29.9874 16.6918 30.0058V8.21293L11.1155 11.22V10.2559L16.6918 7.24885ZM12.9666 13.4787V26.6361C12.3217 26.3561 11.7047 26.0163 11.1341 25.6215V14.4519L12.9666 13.4787Z" fill="#39A9DC"/>
<path fill-rule="evenodd" clip-rule="evenodd" d="M21.3913 29.3356V13.4787L23.2237 14.452V28.5643C24.3418 27.9905 25.367 27.2651 26.267 26.4112V12.8498L17.666 8.21301V30.0059C18.965 29.96 20.2129 29.7258 21.3913 29.3356ZM17.666 3.98022L26.267 8.61701V11.8857L17.666 7.24893V3.98022Z" fill="#002F6B"/>
</svg>